<svg xmlns="http://www.w3.org/2000/svg" viewBox="0 0 246.66 242.37"><defs><style>.a{fill:#615c63;}</style></defs><path class="a" d="M246.66,242.37H0V0H246.66ZM167.09,101.59c3.25,2.47,5.89,4.23,8.29,6.33q23.51,20.56,47,41.23c1,.92,2.26,2,3.49,2.16a35,35,0,0,0,6.38-.19c-.26-2.29.18-5.12-.89-6.78-5.47-8.53-11.38-16.71-17-25.1-3.47-5.16-6.66-10.55-10.16-15.7-2.79-4.12-6-4.35-9.27-.49l-3.18,3.76c-5.6-8.81-11-17.15-16.2-25.57-2.71-4.36-5.78-5.19-9.87-2.2-5.35,3.91-10.9,7.49-16.27,11.38-4.1,3-7.72,3.59-11.9-.3a140,140,0,0,0-15.61-12.41c-2.25-1.57-6.5-3.44-7.74-2.34C108.91,80,105.09,77,101,74c-4.29-3.17-7.61-1.94-10.34,2.51-2,3.15-3.93,6.28-6,9.5a18.73,18.73,0,0,1-3.63-1.31c-5.17-3.26-8.9-2.72-12.72,3.18-6.84,10.6-14.62,20.45-21.86,30.74-2.07,2.94-3.93,4.79-7.76,3.77a7.15,7.15,0,0,0-6.2,1.91c-6.79,7.87-13.2,16.13-20.8,25.58,3.87,1.3,6.63,3.06,9.35,3,8.75-.26,17.47-1.44,26.23-1.81,14.37-.61,12.73.89,15.45-14.35.84-4.66,2.48-7.44,7.27-6.52,5.33,1,8.56-1.72,10.1-7.16,3.46-12.17,10.68-21.82,17.66-31.6.71-1,2.86-1.94,3.71-1.49,10.89,5.88,21.67,12,32.81,18.28-2.07,3.5-3.26,5.7-4.62,7.76-6.39,9.67-12.93,19.21-19.13,29-1,1.51-1.19,4.87-.3,6.11s3.82,1.55,5.49,1c8.34-2.83,16.66-5.8,24.75-9.36,2.57-1.14,6.09-4.06,6.3-6.47.55-6.24,3.75-8,8.32-8.31,5.27-.37,7.4-3.66,8.3-8.91C164.41,113.47,165.75,108,167.09,101.59Z"/></svg>